<?xml version="1.0" encoding="UTF-8"?>
<svg id="svg107" width="24" height="24" version="1.1" viewBox="0 0 24 24" xmlns="http://www.w3.org/2000/svg"><path id="path105" d="m16.318 17.524c6.4764 0 6.4764 4.3176 6.4764 4.3176v2.1588h-6.4764v-2.1588s0-1.8242-1.2413-3.4541c-0.1835-0.24826-0.41017-0.48574-0.64764-0.71241 0.56128-0.08635 1.1765-0.15112 1.8889-0.15112m-8.6351 2.1588c3.7779 0 4.2528 1.6839 4.3176 2.1588h-8.6351c0.064763-0.47493 0.5397-2.1588 4.3176-2.1588m0-2.1588c-6.4764 0-6.4764 4.3176-6.4764 4.3176v2.1588h12.953v-2.1588s0-4.3176-6.4764-4.3176m1.0794-17.27v2.1588h6.4764v-2.1588l3.2382 3.2382-3.2382 3.2382v-2.1588h-6.4764v2.1588l-3.2382-3.2382 3.2382-3.2382m-1.0794 10.794c0.59367 0 1.0794 0.48573 1.0794 1.0794 0 0.59367-0.48573 1.0794-1.0794 1.0794-0.59367 0-1.0794-0.48573-1.0794-1.0794 0-0.59366 0.48573-1.0794 1.0794-1.0794m0-2.1588c-1.7918 0-3.2382 1.4464-3.2382 3.2382 0 1.7918 1.4464 3.2382 3.2382 3.2382 1.7918 0 3.2382-1.4464 3.2382-3.2382 0-1.7918-1.4464-3.2382-3.2382-3.2382m8.6351 0c-1.7918 0-3.2382 1.4464-3.2382 3.2382 0 1.7918 1.4464 3.2382 3.2382 3.2382s3.2382-1.4464 3.2382-3.2382c0-1.7918-1.4464-3.2382-3.2382-3.2382z" stroke-width="1.0794"/></svg>
