<?xml version="1.0" encoding="UTF-8"?>
<svg id="svg11" width="25" height="24" version="1.1" viewBox="0 0 25 24" xmlns="http://www.w3.org/2000/svg"><path id="path9" d="m12.469 8.9335a3.6367 3.6367 0 0 1 3.6367 3.6367 3.6367 3.6367 0 0 1-3.6367 3.6367 3.6367 3.6367 0 0 1-3.6367-3.6367 3.6367 3.6367 0 0 1 3.6367-3.6367m-7.2735 2.5977c0.58188 0 1.1222 0.15586 1.5898 0.43641-0.15586 1.4859 0.28055 2.9613 1.1741 4.1147-0.51953 0.9975-1.5586 1.6833-2.7639 1.6833a3.1172 3.1172 0 0 1-3.1172-3.1172 3.1172 3.1172 0 0 1 3.1172-3.1172m14.547 0a3.1172 3.1172 0 0 1 3.1172 3.1172 3.1172 3.1172 0 0 1-3.1172 3.1172c-1.2053 0-2.2444-0.68578-2.7639-1.6833 0.8936-1.1534 1.33-2.6288 1.1741-4.1147 0.46758-0.28055 1.0079-0.43641 1.5898-0.43641m-14.027 10.65c0-2.1509 3.0237-3.8965 6.7539-3.8965 3.7302 0 6.7539 1.7456 6.7539 3.8965v1.8184h-13.508v-1.8184m-5.7149 1.8184v-1.5586c0-1.4443 1.9638-2.66 4.6238-3.0133-0.61305 0.70657-0.98711 1.6833-0.98711 2.7535v1.8184h-3.6367m24.938 0h-3.6367v-1.8184c0-1.0702-0.37406-2.047-0.98711-2.7535 2.66 0.35328 4.6238 1.569 4.6238 3.0133z" stroke-width="1.0391"/></svg>
